<svg width="170" height="24" viewBox="0 0 170 24" fill="none" xmlns="http://www.w3.org/2000/svg">
<path d="M126.096 23.3103L120.867 13.7278C123.183 12.5693 124.658 10.1266 124.66 7.44426C124.66 3.58848 121.656 0.451343 117.964 0.451343H106.78V23.3094H111.753V14.4372H115.712L120.554 23.3103H126.096ZM111.672 10.0246V4.87491H117.032L117.012 4.88371C118.643 4.97519 119.683 5.96299 119.683 7.45482C119.683 8.93036 118.569 9.96434 116.909 10.0259H111.672V10.0246ZM86.4676 23.3103V0.451343H102.819V4.8129H91.5757V9.386H101.434V13.8447H91.5757V18.7209H103.376V23.3103H86.4676ZM63.1456 23.3103L57.9162 13.7278C60.2322 12.5693 61.7072 10.1262 61.7093 7.44426C61.7093 3.58848 58.7058 0.451343 55.0141 0.451343H43.829V23.3094H48.8032V14.4372H52.763L57.6038 23.3103H63.1456ZM48.7203 10.0246V4.87491H54.0815L54.0604 4.88371C55.6921 4.97519 56.7326 5.96299 56.7326 7.45482C56.7326 8.93036 55.6184 9.96434 53.9577 10.0259H48.7203V10.0246ZM30.5742 23.8736C36.5582 23.8736 40.1319 20.28 40.1319 14.2617V0.46806H35.0242V13.905C35.0242 17.1591 33.4022 19.0257 30.5746 19.0257H30.5717C27.7441 19.0257 26.123 17.1596 26.123 13.905V0.46806H21.0132V14.2626C21.0132 20.2804 24.5869 23.8741 30.5717 23.8741L30.5742 23.8736ZM14.3327 10.65C17.2803 11.6998 18.717 14.3189 18.717 16.8442C18.717 20.4023 15.9509 23.2988 12.5473 23.3103H0.465271V0.449585H11.5932C14.4898 0.477733 16.8251 2.93669 16.8285 5.96255C16.8322 7.87131 15.8873 9.64637 14.3327 10.65ZM5.4795 19.045H11.0639C12.8194 19.045 13.7377 17.6777 13.7377 16.3257C13.7377 15.2367 12.9086 13.7036 11.0639 13.7036H5.4795V19.045ZM9.56861 9.43966C10.8546 9.43966 11.8635 8.40216 11.8635 7.07746C11.8635 5.79675 10.8108 4.71526 9.56777 4.71526H5.4795V9.43966H9.56861Z" fill="black"/>
<path d="M79.3405 10.6454C82.2881 11.6944 83.7248 14.3143 83.7248 16.8397C83.7248 20.3981 80.9587 23.2934 77.5552 23.3057L65.4735 23.3048V0.445016L76.5997 0.44458C79.4972 0.473167 81.8325 2.93256 81.8359 5.95886C81.8392 7.86762 80.8947 9.64135 79.3401 10.6445L79.3405 10.6454ZM70.4873 19.0404H76.0713C77.8267 19.0404 78.7451 17.6731 78.7451 16.3211C78.7451 15.2326 77.9152 13.699 76.0713 13.699H70.4873V19.0404ZM74.5752 9.43508C75.8628 9.43508 76.8717 8.39758 76.8717 7.07289C76.8717 5.79218 75.819 4.71069 74.5752 4.71069H70.4873V9.43508H74.5752V9.43508Z" fill="black"/>
<path d="M147.741 23.3088L142.512 13.7264C144.828 12.5679 146.303 10.1248 146.305 7.44286C146.305 3.58709 143.302 0.449951 139.61 0.449951H128.425V23.308H133.399V14.4358H137.359L142.2 23.3088H147.742H147.741ZM133.316 10.0232V4.87351H138.677L138.656 4.88231C140.288 4.97379 141.329 5.9616 141.329 7.45342C141.329 8.92897 140.215 9.96295 138.553 10.0245H133.316V10.0232ZM155.009 23.3088V13.9942L146.327 0.449951H152.705L157.703 8.30884L162.722 0.449951H169.1L160.397 13.9942V23.3088H155.009Z" fill="black"/>
</svg>
